<svg xmlns="http://www.w3.org/2000/svg" width="256" height="256" viewBox="-8 0 176 176" role="img"><title>シルバー4</title><g stroke="#E6EBF3" stroke-width="2" stroke-linejoin="round"><path d="M32 60 C23 62 13 62 5 60 C12 72 22 78 32 80 Z" fill="#8993A8"/><path d="M32 46 C22 46 11 44 2 40 C8 54 20 62 32 66 Z" fill="#A8B2C4"/><path d="M32 32 C22 30 12 26 3 20 C10 34 20 44 32 50 Z" fill="#C4CCDA"/></g><g transform="translate(160 0) scale(-1 1)"><g stroke="#E6EBF3" stroke-width="2" stroke-linejoin="round"><path d="M32 60 C23 62 13 62 5 60 C12 72 22 78 32 80 Z" fill="#8993A8"/><path d="M32 46 C22 46 11 44 2 40 C8 54 20 62 32 66 Z" fill="#A8B2C4"/><path d="M32 32 C22 30 12 26 3 20 C10 34 20 44 32 50 Z" fill="#C4CCDA"/></g></g><path d="M80 14 L134 30 V78 C134 106 110 128 80 146 C50 128 26 106 26 78 V30 Z" fill="#E6EBF3" stroke="#E6EBF3" stroke-width="4" stroke-linejoin="round"/><g transform="translate(80 80) scale(0.84) translate(-80 -80)"><path d="M80 14 L26 30 V78 C26 106 50 128 80 146 Z" fill="#C4CCDA"/><path d="M80 14 L134 30 V78 C134 106 110 128 80 146 Z" fill="#A8B2C4"/></g><rect x="55" y="55" width="14" height="14" rx="4" fill="#333B4D"/><rect x="73" y="55" width="14" height="14" rx="4" fill="#333B4D"/><rect x="91" y="55" width="14" height="14" rx="4" fill="#333B4D"/><rect x="73" y="73" width="14" height="14" rx="4" fill="#333B4D"/><rect x="73" y="91" width="14" height="14" rx="4" fill="#FFFFFF"/><rect x="38" y="158" width="12" height="12" rx="3.5" fill="#A8B2C4" stroke="#E6EBF3" stroke-width="1.5"/><rect x="56" y="158" width="12" height="12" rx="3.5" fill="#A8B2C4" stroke="#E6EBF3" stroke-width="1.5"/><rect x="74" y="158" width="12" height="12" rx="3.5" fill="#A8B2C4" stroke="#E6EBF3" stroke-width="1.5"/><rect x="92" y="158" width="12" height="12" rx="3.5" fill="#A8B2C4" stroke="#E6EBF3" stroke-width="1.5"/><rect x="110" y="158" width="12" height="12" rx="3.5" fill="#2A2F3C" stroke="#3A4050" stroke-width="1.5"/></svg>
